# xmcd
#
# Track frame offsets:
#	150
#	14451
#	32202
#	53495
#	68626
#	84795
#	99613
#	118795
#	134162
#	149712
#	162861
#	178908
#	195407
#	212102
#	229402
#
# Disc length: 3302 seconds
#
# Revision: 1
# Processed by: cddbd v1.5.2PL0 Copyright (c) Steve Scherf et al.
# Submitted via: audiograbber 1.83.01
#
DISCID=da0ce40f
DTITLE=Oswald Sattler - Credo - Religiöse Lieder
DYEAR=2009
DGENRE=Religöse Lieder
TTITLE0=Herr du bist da
TTITLE1=Selig bist du
TTITLE2=Credi in unum Deum
TTITLE3=Näher mein Gott zu dir
TTITLE4=Gloria
TTITLE5=Herr, du bist in mir
TTITLE6=Maria hat geholfen
TTITLE7=Ich hatte einen Kameraden
TTITLE8=Urbi et Orbi
TTITLE9=Du bist mein Kind
TTITLE10=Herr in deiner Güte
TTITLE11=Jesus, der Mann aus Nazareth
TTITLE12=So nimm denn meine Hände
TTITLE13=Auch wenn der Tod uns scheidet
TTITLE14=Schwarze Madonna von Altötting
EXTD=Credo ist Latein und bedeutet: Ich glaube. Und wer Oswald Sattler kennt, d
EXTD=er weiß, dass das nicht nur so daher gesagt ist, sondern seiner innersten 
EXTD=Anschauung entspricht. \nZum Glauben gehört für Oswald Sattler seit je her
EXTD=auch immer Dankbarkeit. Und genau diese Dankbarkeit möchte er, den Mensch
EXTD=en und natürlich auch unserem Schöpfer mit seinen bewegenden religiösen Al
EXTD=ben zeigen. Schon seit vielen Jahren gibt Oswald Sattler ausverkaufte reli
EXTD=giöse Konzerte in ausgewählten Kirchen Deutschlands. "Meine religiösen Lie
EXTD=der sollen vermitteln, dass es immer wieder Gott ist, der über allem ruht 
EXTD=und letztlich unser Schicksal bestimmt", erklärt Oswald seine Haltung zu G
EXTD=ott und den Liedern. 
EXTT0=
EXTT1=
EXTT2=
EXTT3=
EXTT4=
EXTT5=
EXTT6=
EXTT7=
EXTT8=
EXTT9=
EXTT10=
EXTT11=
EXTT12=
EXTT13=
EXTT14=
PLAYORDER=
